<?xml version="1.0" encoding="utf-8" standalone="no"?>
<!DOCTYPE svg PUBLIC "-//W3C//DTD SVG 1.1//EN"
  "http://www.w3.org/Graphics/SVG/1.1/DTD/svg11.dtd">
<!-- Created with matplotlib (http://matplotlib.org/) -->
<svg height="432pt" version="1.1" viewBox="0 0 648 432" width="648pt" xmlns="http://www.w3.org/2000/svg" xmlns:xlink="http://www.w3.org/1999/xlink">
 <defs>
  <style type="text/css">
*{stroke-linecap:butt;stroke-linejoin:round;}
  </style>
 </defs>
 <g id="figure_1">
  <g id="patch_1">
   <path d="M 0 432 
L 648 432 
L 648 0 
L 0 0 
z
" style="fill:#ffffff;"/>
  </g>
  <g id="axes_1">
   <g id="patch_2">
    <path d="M 81 378 
L 583.2 378 
L 583.2 51.84 
L 81 51.84 
z
" style="fill:#ffffff;"/>
   </g>
   <g id="patch_3">
    <path clip-path="url(#pd27e32b4f9)" d="M 103.827273 378 
L 108.985978 378 
L 108.985978 378 
L 103.827273 378 
z
"/>
   </g>
   <g id="patch_4">
    <path clip-path="url(#pd27e32b4f9)" d="M 110.275655 378 
L 115.434361 378 
L 115.434361 378 
L 110.275655 378 
z
"/>
   </g>
   <g id="patch_5">
    <path clip-path="url(#pd27e32b4f9)" d="M 116.724037 378 
L 121.882743 378 
L 121.882743 378 
L 116.724037 378 
z
"/>
   </g>
   <g id="patch_6">
    <path clip-path="url(#pd27e32b4f9)" d="M 123.172419 378 
L 128.331125 378 
L 128.331125 378 
L 123.172419 378 
z
"/>
   </g>
   <g id="patch_7">
    <path clip-path="url(#pd27e32b4f9)" d="M 129.620801 378 
L 134.779507 378 
L 134.779507 378 
L 129.620801 378 
z
"/>
   </g>
   <g id="patch_8">
    <path clip-path="url(#pd27e32b4f9)" d="M 136.069183 378 
L 141.227889 378 
L 141.227889 377.723069 
L 136.069183 377.723069 
z
"/>
   </g>
   <g id="patch_9">
    <path clip-path="url(#pd27e32b4f9)" d="M 142.517565 378 
L 147.676271 378 
L 147.676271 376.904061 
L 142.517565 376.904061 
z
"/>
   </g>
   <g id="patch_10">
    <path clip-path="url(#pd27e32b4f9)" d="M 148.965948 378 
L 154.124653 378 
L 154.124653 375.80223 
L 148.965948 375.80223 
z
"/>
   </g>
   <g id="patch_11">
    <path clip-path="url(#pd27e32b4f9)" d="M 155.41433 378 
L 160.573035 378 
L 160.573035 373.948168 
L 155.41433 373.948168 
z
"/>
   </g>
   <g id="patch_12">
    <path clip-path="url(#pd27e32b4f9)" d="M 161.862712 378 
L 167.021418 378 
L 167.021418 371.33402 
L 161.862712 371.33402 
z
"/>
   </g>
   <g id="patch_13">
    <path clip-path="url(#pd27e32b4f9)" d="M 168.311094 378 
L 173.4698 378 
L 173.4698 367.706422 
L 168.311094 367.706422 
z
"/>
   </g>
   <g id="patch_14">
    <path clip-path="url(#pd27e32b4f9)" d="M 174.759476 378 
L 179.918182 378 
L 179.918182 364.043472 
L 174.759476 364.043472 
z
"/>
   </g>
   <g id="patch_15">
    <path clip-path="url(#pd27e32b4f9)" d="M 181.207858 378 
L 186.366564 378 
L 186.366564 362.658818 
L 181.207858 362.658818 
z
"/>
   </g>
   <g id="patch_16">
    <path clip-path="url(#pd27e32b4f9)" d="M 187.65624 378 
L 192.814946 378 
L 192.814946 360.832253 
L 187.65624 360.832253 
z
"/>
   </g>
   <g id="patch_17">
    <path clip-path="url(#pd27e32b4f9)" d="M 194.104622 378 
L 199.263328 378 
L 199.263328 358.198464 
L 194.104622 358.198464 
z
"/>
   </g>
   <g id="patch_18">
    <path clip-path="url(#pd27e32b4f9)" d="M 200.553005 378 
L 205.71171 378 
L 205.71171 354.040574 
L 200.553005 354.040574 
z
"/>
   </g>
   <g id="patch_19">
    <path clip-path="url(#pd27e32b4f9)" d="M 207.001387 378 
L 212.160092 378 
L 212.160092 350.996299 
L 207.001387 350.996299 
z
"/>
   </g>
   <g id="patch_20">
    <path clip-path="url(#pd27e32b4f9)" d="M 213.449769 378 
L 218.608475 378 
L 218.608475 346.909114 
L 213.449769 346.909114 
z
"/>
   </g>
   <g id="patch_21">
    <path clip-path="url(#pd27e32b4f9)" d="M 219.898151 378 
L 225.056857 378 
L 225.056857 342.647129 
L 219.898151 342.647129 
z
"/>
   </g>
   <g id="patch_22">
    <path clip-path="url(#pd27e32b4f9)" d="M 226.346533 378 
L 231.505239 378 
L 231.505239 338.750457 
L 226.346533 338.750457 
z
"/>
   </g>
   <g id="patch_23">
    <path clip-path="url(#pd27e32b4f9)" d="M 232.794915 378 
L 237.953621 378 
L 237.953621 334.622027 
L 232.794915 334.622027 
z
"/>
   </g>
   <g id="patch_24">
    <path clip-path="url(#pd27e32b4f9)" d="M 239.243297 378 
L 244.402003 378 
L 244.402003 329.963304 
L 239.243297 329.963304 
z
"/>
   </g>
   <g id="patch_25">
    <path clip-path="url(#pd27e32b4f9)" d="M 245.69168 378 
L 250.850385 378 
L 250.850385 325.041399 
L 245.69168 325.041399 
z
"/>
   </g>
   <g id="patch_26">
    <path clip-path="url(#pd27e32b4f9)" d="M 252.140062 378 
L 257.298767 378 
L 257.298767 320.082177 
L 252.140062 320.082177 
z
"/>
   </g>
   <g id="patch_27">
    <path clip-path="url(#pd27e32b4f9)" d="M 258.588444 378 
L 263.747149 378 
L 263.747149 316.582243 
L 258.588444 316.582243 
z
"/>
   </g>
   <g id="patch_28">
    <path clip-path="url(#pd27e32b4f9)" d="M 265.036826 378 
L 270.195532 378 
L 270.195532 312.75824 
L 265.036826 312.75824 
z
"/>
   </g>
   <g id="patch_29">
    <path clip-path="url(#pd27e32b4f9)" d="M 271.485208 378 
L 276.643914 378 
L 276.643914 309.048153 
L 271.485208 309.048153 
z
"/>
   </g>
   <g id="patch_30">
    <path clip-path="url(#pd27e32b4f9)" d="M 277.93359 378 
L 283.092296 378 
L 283.092296 305.182906 
L 277.93359 305.182906 
z
"/>
   </g>
   <g id="patch_31">
    <path clip-path="url(#pd27e32b4f9)" d="M 284.381972 378 
L 289.540678 378 
L 289.540678 301.074117 
L 284.381972 301.074117 
z
"/>
   </g>
   <g id="patch_32">
    <path clip-path="url(#pd27e32b4f9)" d="M 290.830354 378 
L 295.98906 378 
L 295.98906 296.061865 
L 290.830354 296.061865 
z
"/>
   </g>
   <g id="patch_33">
    <path clip-path="url(#pd27e32b4f9)" d="M 297.278737 378 
L 302.437442 378 
L 302.437442 291.933435 
L 297.278737 291.933435 
z
"/>
   </g>
   <g id="patch_34">
    <path clip-path="url(#pd27e32b4f9)" d="M 303.727119 378 
L 308.885824 378 
L 308.885824 288.618122 
L 303.727119 288.618122 
z
"/>
   </g>
   <g id="patch_35">
    <path clip-path="url(#pd27e32b4f9)" d="M 310.175501 378 
L 315.334206 378 
L 315.334206 285.29888 
L 310.175501 285.29888 
z
"/>
   </g>
   <g id="patch_36">
    <path clip-path="url(#pd27e32b4f9)" d="M 316.623883 378 
L 321.782589 378 
L 321.782589 280.302341 
L 316.623883 280.302341 
z
"/>
   </g>
   <g id="patch_37">
    <path clip-path="url(#pd27e32b4f9)" d="M 323.072265 378 
L 328.230971 378 
L 328.230971 275.757533 
L 323.072265 275.757533 
z
"/>
   </g>
   <g id="patch_38">
    <path clip-path="url(#pd27e32b4f9)" d="M 329.520647 378 
L 334.679353 378 
L 334.679353 271.562325 
L 329.520647 271.562325 
z
"/>
   </g>
   <g id="patch_39">
    <path clip-path="url(#pd27e32b4f9)" d="M 335.969029 378 
L 341.127735 378 
L 341.127735 267.903898 
L 335.969029 267.903898 
z
"/>
   </g>
   <g id="patch_40">
    <path clip-path="url(#pd27e32b4f9)" d="M 342.417411 378 
L 347.576117 378 
L 347.576117 264.714968 
L 342.417411 264.714968 
z
"/>
   </g>
   <g id="patch_41">
    <path clip-path="url(#pd27e32b4f9)" d="M 348.865794 378 
L 354.024499 378 
L 354.024499 261.904076 
L 348.865794 261.904076 
z
"/>
   </g>
   <g id="patch_42">
    <path clip-path="url(#pd27e32b4f9)" d="M 355.314176 378 
L 360.472881 378 
L 360.472881 258.855386 
L 355.314176 258.855386 
z
"/>
   </g>
   <g id="patch_43">
    <path clip-path="url(#pd27e32b4f9)" d="M 361.762558 378 
L 366.921263 378 
L 366.921263 256.654232 
L 361.762558 256.654232 
z
"/>
   </g>
   <g id="patch_44">
    <path clip-path="url(#pd27e32b4f9)" d="M 368.21094 378 
L 373.369646 378 
L 373.369646 251.873887 
L 368.21094 251.873887 
z
"/>
   </g>
   <g id="patch_45">
    <path clip-path="url(#pd27e32b4f9)" d="M 374.659322 378 
L 379.818028 378 
L 379.818028 247.185002 
L 374.659322 247.185002 
z
"/>
   </g>
   <g id="patch_46">
    <path clip-path="url(#pd27e32b4f9)" d="M 381.107704 378 
L 386.26641 378 
L 386.26641 240.855922 
L 381.107704 240.855922 
z
"/>
   </g>
   <g id="patch_47">
    <path clip-path="url(#pd27e32b4f9)" d="M 387.556086 378 
L 392.714792 378 
L 392.714792 234.715861 
L 387.556086 234.715861 
z
"/>
   </g>
   <g id="patch_48">
    <path clip-path="url(#pd27e32b4f9)" d="M 394.004468 378 
L 399.163174 378 
L 399.163174 233.264684 
L 394.004468 233.264684 
z
"/>
   </g>
   <g id="patch_49">
    <path clip-path="url(#pd27e32b4f9)" d="M 400.452851 378 
L 405.611556 378 
L 405.611556 229.655036 
L 400.452851 229.655036 
z
"/>
   </g>
   <g id="patch_50">
    <path clip-path="url(#pd27e32b4f9)" d="M 406.901233 378 
L 412.059938 378 
L 412.059938 226.892923 
L 406.901233 226.892923 
z
"/>
   </g>
   <g id="patch_51">
    <path clip-path="url(#pd27e32b4f9)" d="M 413.349615 378 
L 418.50832 378 
L 418.50832 224.271049 
L 413.349615 224.271049 
z
"/>
   </g>
   <g id="patch_52">
    <path clip-path="url(#pd27e32b4f9)" d="M 419.797997 378 
L 424.956703 378 
L 424.956703 221.508936 
L 419.797997 221.508936 
z
"/>
   </g>
   <g id="patch_53">
    <path clip-path="url(#pd27e32b4f9)" d="M 426.246379 378 
L 431.405085 378 
L 431.405085 220.106539 
L 426.246379 220.106539 
z
"/>
   </g>
   <g id="patch_54">
    <path clip-path="url(#pd27e32b4f9)" d="M 432.694761 378 
L 437.853467 378 
L 437.853467 216.40543 
L 432.694761 216.40543 
z
"/>
   </g>
   <g id="patch_55">
    <path clip-path="url(#pd27e32b4f9)" d="M 439.143143 378 
L 444.301849 378 
L 444.301849 214.064036 
L 439.143143 214.064036 
z
"/>
   </g>
   <g id="patch_56">
    <path clip-path="url(#pd27e32b4f9)" d="M 445.591525 378 
L 450.750231 378 
L 450.750231 211.204365 
L 445.591525 211.204365 
z
"/>
   </g>
   <g id="patch_57">
    <path clip-path="url(#pd27e32b4f9)" d="M 452.039908 378 
L 457.198613 378 
L 457.198613 208.558102 
L 452.039908 208.558102 
z
"/>
   </g>
   <g id="patch_58">
    <path clip-path="url(#pd27e32b4f9)" d="M 458.48829 378 
L 463.646995 378 
L 463.646995 205.911839 
L 458.48829 205.911839 
z
"/>
   </g>
   <g id="patch_59">
    <path clip-path="url(#pd27e32b4f9)" d="M 464.936672 378 
L 470.095378 378 
L 470.095378 203.265577 
L 464.936672 203.265577 
z
"/>
   </g>
   <g id="patch_60">
    <path clip-path="url(#pd27e32b4f9)" d="M 471.385054 378 
L 476.54376 378 
L 476.54376 200.619314 
L 471.385054 200.619314 
z
"/>
   </g>
   <g id="patch_61">
    <path clip-path="url(#pd27e32b4f9)" d="M 477.833436 378 
L 482.992142 378 
L 482.992142 197.973051 
L 477.833436 197.973051 
z
"/>
   </g>
   <g id="patch_62">
    <path clip-path="url(#pd27e32b4f9)" d="M 484.281818 378 
L 489.440524 378 
L 489.440524 195.326788 
L 484.281818 195.326788 
z
"/>
   </g>
   <g id="patch_63">
    <path clip-path="url(#pd27e32b4f9)" d="M 490.7302 378 
L 495.888906 378 
L 495.888906 192.680526 
L 490.7302 192.680526 
z
"/>
   </g>
   <g id="patch_64">
    <path clip-path="url(#pd27e32b4f9)" d="M 497.178582 378 
L 502.337288 378 
L 502.337288 192.680526 
L 497.178582 192.680526 
z
"/>
   </g>
   <g id="patch_65">
    <path clip-path="url(#pd27e32b4f9)" d="M 503.626965 378 
L 508.78567 378 
L 508.78567 192.680526 
L 503.626965 192.680526 
z
"/>
   </g>
   <g id="patch_66">
    <path clip-path="url(#pd27e32b4f9)" d="M 510.075347 378 
L 515.234052 378 
L 515.234052 192.680526 
L 510.075347 192.680526 
z
"/>
   </g>
   <g id="patch_67">
    <path clip-path="url(#pd27e32b4f9)" d="M 516.523729 378 
L 521.682435 378 
L 521.682435 192.680526 
L 516.523729 192.680526 
z
"/>
   </g>
   <g id="patch_68">
    <path clip-path="url(#pd27e32b4f9)" d="M 522.972111 378 
L 528.130817 378 
L 528.130817 192.680526 
L 522.972111 192.680526 
z
"/>
   </g>
   <g id="patch_69">
    <path clip-path="url(#pd27e32b4f9)" d="M 529.420493 378 
L 534.579199 378 
L 534.579199 192.680526 
L 529.420493 192.680526 
z
"/>
   </g>
   <g id="patch_70">
    <path clip-path="url(#pd27e32b4f9)" d="M 535.868875 378 
L 541.027581 378 
L 541.027581 192.680526 
L 535.868875 192.680526 
z
"/>
   </g>
   <g id="patch_71">
    <path clip-path="url(#pd27e32b4f9)" d="M 542.317257 378 
L 547.475963 378 
L 547.475963 192.680526 
L 542.317257 192.680526 
z
"/>
   </g>
   <g id="patch_72">
    <path clip-path="url(#pd27e32b4f9)" d="M 548.765639 378 
L 553.924345 378 
L 553.924345 192.680526 
L 548.765639 192.680526 
z
"/>
   </g>
   <g id="patch_73">
    <path clip-path="url(#pd27e32b4f9)" d="M 555.214022 378 
L 560.372727 378 
L 560.372727 192.680526 
L 555.214022 192.680526 
z
"/>
   </g>
   <g id="patch_74">
    <path clip-path="url(#pd27e32b4f9)" d="M 103.827273 378 
L 108.985978 378 
L 108.985978 378 
L 103.827273 378 
z
" style="fill:#4c4c4c;"/>
   </g>
   <g id="patch_75">
    <path clip-path="url(#pd27e32b4f9)" d="M 110.275655 378 
L 115.434361 378 
L 115.434361 378 
L 110.275655 378 
z
" style="fill:#4c4c4c;"/>
   </g>
   <g id="patch_76">
    <path clip-path="url(#pd27e32b4f9)" d="M 116.724037 378 
L 121.882743 378 
L 121.882743 378 
L 116.724037 378 
z
" style="fill:#4c4c4c;"/>
   </g>
   <g id="patch_77">
    <path clip-path="url(#pd27e32b4f9)" d="M 123.172419 378 
L 128.331125 378 
L 128.331125 378 
L 123.172419 378 
z
" style="fill:#4c4c4c;"/>
   </g>
   <g id="patch_78">
    <path clip-path="url(#pd27e32b4f9)" d="M 129.620801 378 
L 134.779507 378 
L 134.779507 378 
L 129.620801 378 
z
" style="fill:#4c4c4c;"/>
   </g>
   <g id="patch_79">
    <path clip-path="url(#pd27e32b4f9)" d="M 136.069183 377.723069 
L 141.227889 377.723069 
L 141.227889 377.723069 
L 136.069183 377.723069 
z
" style="fill:#4c4c4c;"/>
   </g>
   <g id="patch_80">
    <path clip-path="url(#pd27e32b4f9)" d="M 142.517565 376.904061 
L 147.676271 376.904061 
L 147.676271 376.904061 
L 142.517565 376.904061 
z
" style="fill:#4c4c4c;"/>
   </g>
   <g id="patch_81">
    <path clip-path="url(#pd27e32b4f9)" d="M 148.965948 375.80223 
L 154.124653 375.80223 
L 154.124653 375.80223 
L 148.965948 375.80223 
z
" style="fill:#4c4c4c;"/>
   </g>
   <g id="patch_82">
    <path clip-path="url(#pd27e32b4f9)" d="M 155.41433 373.948168 
L 160.573035 373.948168 
L 160.573035 373.948168 
L 155.41433 373.948168 
z
" style="fill:#4c4c4c;"/>
   </g>
   <g id="patch_83">
    <path clip-path="url(#pd27e32b4f9)" d="M 161.862712 371.33402 
L 167.021418 371.33402 
L 167.021418 371.33402 
L 161.862712 371.33402 
z
" style="fill:#4c4c4c;"/>
   </g>
   <g id="patch_84">
    <path clip-path="url(#pd27e32b4f9)" d="M 168.311094 367.706422 
L 173.4698 367.706422 
L 173.4698 367.706422 
L 168.311094 367.706422 
z
" style="fill:#4c4c4c;"/>
   </g>
   <g id="patch_85">
    <path clip-path="url(#pd27e32b4f9)" d="M 174.759476 364.043472 
L 179.918182 364.043472 
L 179.918182 364.043472 
L 174.759476 364.043472 
z
" style="fill:#4c4c4c;"/>
   </g>
   <g id="patch_86">
    <path clip-path="url(#pd27e32b4f9)" d="M 181.207858 362.658818 
L 186.366564 362.658818 
L 186.366564 362.658818 
L 181.207858 362.658818 
z
" style="fill:#4c4c4c;"/>
   </g>
   <g id="patch_87">
    <path clip-path="url(#pd27e32b4f9)" d="M 187.65624 360.832253 
L 192.814946 360.832253 
L 192.814946 360.832253 
L 187.65624 360.832253 
z
" style="fill:#4c4c4c;"/>
   </g>
   <g id="patch_88">
    <path clip-path="url(#pd27e32b4f9)" d="M 194.104622 358.198464 
L 199.263328 358.198464 
L 199.263328 358.198464 
L 194.104622 358.198464 
z
" style="fill:#4c4c4c;"/>
   </g>
   <g id="patch_89">
    <path clip-path="url(#pd27e32b4f9)" d="M 200.553005 354.040574 
L 205.71171 354.040574 
L 205.71171 354.040574 
L 200.553005 354.040574 
z
" style="fill:#4c4c4c;"/>
   </g>
   <g id="patch_90">
    <path clip-path="url(#pd27e32b4f9)" d="M 207.001387 350.996299 
L 212.160092 350.996299 
L 212.160092 350.996299 
L 207.001387 350.996299 
z
" style="fill:#4c4c4c;"/>
   </g>
   <g id="patch_91">
    <path clip-path="url(#pd27e32b4f9)" d="M 213.449769 346.909114 
L 218.608475 346.909114 
L 218.608475 346.909114 
L 213.449769 346.909114 
z
" style="fill:#4c4c4c;"/>
   </g>
   <g id="patch_92">
    <path clip-path="url(#pd27e32b4f9)" d="M 219.898151 342.647129 
L 225.056857 342.647129 
L 225.056857 342.647129 
L 219.898151 342.647129 
z
" style="fill:#4c4c4c;"/>
   </g>
   <g id="patch_93">
    <path clip-path="url(#pd27e32b4f9)" d="M 226.346533 338.750457 
L 231.505239 338.750457 
L 231.505239 338.750457 
L 226.346533 338.750457 
z
" style="fill:#4c4c4c;"/>
   </g>
   <g id="patch_94">
    <path clip-path="url(#pd27e32b4f9)" d="M 232.794915 334.622027 
L 237.953621 334.622027 
L 237.953621 334.622027 
L 232.794915 334.622027 
z
" style="fill:#4c4c4c;"/>
   </g>
   <g id="patch_95">
    <path clip-path="url(#pd27e32b4f9)" d="M 239.243297 329.963304 
L 244.402003 329.963304 
L 244.402003 329.963304 
L 239.243297 329.963304 
z
" style="fill:#4c4c4c;"/>
   </g>
   <g id="patch_96">
    <path clip-path="url(#pd27e32b4f9)" d="M 245.69168 325.041399 
L 250.850385 325.041399 
L 250.850385 325.041399 
L 245.69168 325.041399 
z
" style="fill:#4c4c4c;"/>
   </g>
   <g id="patch_97">
    <path clip-path="url(#pd27e32b4f9)" d="M 252.140062 320.082177 
L 257.298767 320.082177 
L 257.298767 320.082177 
L 252.140062 320.082177 
z
" style="fill:#4c4c4c;"/>
   </g>
   <g id="patch_98">
    <path clip-path="url(#pd27e32b4f9)" d="M 258.588444 316.582243 
L 263.747149 316.582243 
L 263.747149 316.582243 
L 258.588444 316.582243 
z
" style="fill:#4c4c4c;"/>
   </g>
   <g id="patch_99">
    <path clip-path="url(#pd27e32b4f9)" d="M 265.036826 312.75824 
L 270.195532 312.75824 
L 270.195532 312.75824 
L 265.036826 312.75824 
z
" style="fill:#4c4c4c;"/>
   </g>
   <g id="patch_100">
    <path clip-path="url(#pd27e32b4f9)" d="M 271.485208 309.048153 
L 276.643914 309.048153 
L 276.643914 309.048153 
L 271.485208 309.048153 
z
" style="fill:#4c4c4c;"/>
   </g>
   <g id="patch_101">
    <path clip-path="url(#pd27e32b4f9)" d="M 277.93359 305.182906 
L 283.092296 305.182906 
L 283.092296 305.182906 
L 277.93359 305.182906 
z
" style="fill:#4c4c4c;"/>
   </g>
   <g id="patch_102">
    <path clip-path="url(#pd27e32b4f9)" d="M 284.381972 301.074117 
L 289.540678 301.074117 
L 289.540678 301.074117 
L 284.381972 301.074117 
z
" style="fill:#4c4c4c;"/>
   </g>
   <g id="patch_103">
    <path clip-path="url(#pd27e32b4f9)" d="M 290.830354 296.061865 
L 295.98906 296.061865 
L 295.98906 296.061865 
L 290.830354 296.061865 
z
" style="fill:#4c4c4c;"/>
   </g>
   <g id="patch_104">
    <path clip-path="url(#pd27e32b4f9)" d="M 297.278737 291.933435 
L 302.437442 291.933435 
L 302.437442 291.933435 
L 297.278737 291.933435 
z
" style="fill:#4c4c4c;"/>
   </g>
   <g id="patch_105">
    <path clip-path="url(#pd27e32b4f9)" d="M 303.727119 288.618122 
L 308.885824 288.618122 
L 308.885824 288.618122 
L 303.727119 288.618122 
z
" style="fill:#4c4c4c;"/>
   </g>
   <g id="patch_106">
    <path clip-path="url(#pd27e32b4f9)" d="M 310.175501 285.29888 
L 315.334206 285.29888 
L 315.334206 285.29888 
L 310.175501 285.29888 
z
" style="fill:#4c4c4c;"/>
   </g>
   <g id="patch_107">
    <path clip-path="url(#pd27e32b4f9)" d="M 316.623883 280.302341 
L 321.782589 280.302341 
L 321.782589 280.302341 
L 316.623883 280.302341 
z
" style="fill:#4c4c4c;"/>
   </g>
   <g id="patch_108">
    <path clip-path="url(#pd27e32b4f9)" d="M 323.072265 275.757533 
L 328.230971 275.757533 
L 328.230971 275.757533 
L 323.072265 275.757533 
z
" style="fill:#4c4c4c;"/>
   </g>
   <g id="patch_109">
    <path clip-path="url(#pd27e32b4f9)" d="M 329.520647 271.562325 
L 334.679353 271.562325 
L 334.679353 271.562325 
L 329.520647 271.562325 
z
" style="fill:#4c4c4c;"/>
   </g>
   <g id="patch_110">
    <path clip-path="url(#pd27e32b4f9)" d="M 335.969029 267.903898 
L 341.127735 267.903898 
L 341.127735 267.903898 
L 335.969029 267.903898 
z
" style="fill:#4c4c4c;"/>
   </g>
   <g id="patch_111">
    <path clip-path="url(#pd27e32b4f9)" d="M 342.417411 264.714968 
L 347.576117 264.714968 
L 347.576117 261.427656 
L 342.417411 261.427656 
z
" style="fill:#4c4c4c;"/>
   </g>
   <g id="patch_112">
    <path clip-path="url(#pd27e32b4f9)" d="M 348.865794 261.904076 
L 354.024499 261.904076 
L 354.024499 250.849796 
L 348.865794 250.849796 
z
" style="fill:#4c4c4c;"/>
   </g>
   <g id="patch_113">
    <path clip-path="url(#pd27e32b4f9)" d="M 355.314176 258.855386 
L 360.472881 258.855386 
L 360.472881 246.964051 
L 355.314176 246.964051 
z
" style="fill:#4c4c4c;"/>
   </g>
   <g id="patch_114">
    <path clip-path="url(#pd27e32b4f9)" d="M 361.762558 256.654232 
L 366.921263 256.654232 
L 366.921263 244.762897 
L 361.762558 244.762897 
z
" style="fill:#4c4c4c;"/>
   </g>
   <g id="patch_115">
    <path clip-path="url(#pd27e32b4f9)" d="M 368.21094 251.873887 
L 373.369646 251.873887 
L 373.369646 236.796736 
L 368.21094 236.796736 
z
" style="fill:#4c4c4c;"/>
   </g>
   <g id="patch_116">
    <path clip-path="url(#pd27e32b4f9)" d="M 374.659322 247.185002 
L 379.818028 247.185002 
L 379.818028 227.103577 
L 374.659322 227.103577 
z
" style="fill:#4c4c4c;"/>
   </g>
   <g id="patch_117">
    <path clip-path="url(#pd27e32b4f9)" d="M 381.107704 240.855922 
L 386.26641 240.855922 
L 386.26641 218.900338 
L 381.107704 218.900338 
z
" style="fill:#4c4c4c;"/>
   </g>
   <g id="patch_118">
    <path clip-path="url(#pd27e32b4f9)" d="M 387.556086 234.715861 
L 392.714792 234.715861 
L 392.714792 212.424097 
L 387.556086 212.424097 
z
" style="fill:#4c4c4c;"/>
   </g>
   <g id="patch_119">
    <path clip-path="url(#pd27e32b4f9)" d="M 394.004468 233.264684 
L 399.163174 233.264684 
L 399.163174 208.538352 
L 394.004468 208.538352 
z
" style="fill:#4c4c4c;"/>
   </g>
   <g id="patch_120">
    <path clip-path="url(#pd27e32b4f9)" d="M 400.452851 229.655036 
L 405.611556 229.655036 
L 405.611556 204.220858 
L 400.452851 204.220858 
z
" style="fill:#4c4c4c;"/>
   </g>
   <g id="patch_121">
    <path clip-path="url(#pd27e32b4f9)" d="M 406.901233 226.892923 
L 412.059938 226.892923 
L 412.059938 201.458745 
L 406.901233 201.458745 
z
" style="fill:#4c4c4c;"/>
   </g>
   <g id="patch_122">
    <path clip-path="url(#pd27e32b4f9)" d="M 413.349615 224.271049 
L 418.50832 224.271049 
L 418.50832 198.836872 
L 413.349615 198.836872 
z
" style="fill:#4c4c4c;"/>
   </g>
   <g id="patch_123">
    <path clip-path="url(#pd27e32b4f9)" d="M 419.797997 221.508936 
L 424.956703 221.508936 
L 424.956703 195.257434 
L 419.797997 195.257434 
z
" style="fill:#4c4c4c;"/>
   </g>
   <g id="patch_124">
    <path clip-path="url(#pd27e32b4f9)" d="M 426.246379 220.106539 
L 431.405085 220.106539 
L 431.405085 188.462004 
L 426.246379 188.462004 
z
" style="fill:#4c4c4c;"/>
   </g>
   <g id="patch_125">
    <path clip-path="url(#pd27e32b4f9)" d="M 432.694761 216.40543 
L 437.853467 216.40543 
L 437.853467 183.065136 
L 432.694761 183.065136 
z
" style="fill:#4c4c4c;"/>
   </g>
   <g id="patch_126">
    <path clip-path="url(#pd27e32b4f9)" d="M 439.143143 214.064036 
L 444.301849 214.064036 
L 444.301849 178.531768 
L 439.143143 178.531768 
z
" style="fill:#4c4c4c;"/>
   </g>
   <g id="patch_127">
    <path clip-path="url(#pd27e32b4f9)" d="M 445.591525 211.204365 
L 450.750231 211.204365 
L 450.750231 175.672097 
L 445.591525 175.672097 
z
" style="fill:#4c4c4c;"/>
   </g>
   <g id="patch_128">
    <path clip-path="url(#pd27e32b4f9)" d="M 452.039908 208.558102 
L 457.198613 208.558102 
L 457.198613 170.766009 
L 452.039908 170.766009 
z
" style="fill:#4c4c4c;"/>
   </g>
   <g id="patch_129">
    <path clip-path="url(#pd27e32b4f9)" d="M 458.48829 205.911839 
L 463.646995 205.911839 
L 463.646995 165.557697 
L 458.48829 165.557697 
z
" style="fill:#4c4c4c;"/>
   </g>
   <g id="patch_130">
    <path clip-path="url(#pd27e32b4f9)" d="M 464.936672 203.265577 
L 470.095378 203.265577 
L 470.095378 156.706834 
L 464.936672 156.706834 
z
" style="fill:#4c4c4c;"/>
   </g>
   <g id="patch_131">
    <path clip-path="url(#pd27e32b4f9)" d="M 471.385054 200.619314 
L 476.54376 200.619314 
L 476.54376 151.894788 
L 471.385054 151.894788 
z
" style="fill:#4c4c4c;"/>
   </g>
   <g id="patch_132">
    <path clip-path="url(#pd27e32b4f9)" d="M 477.833436 197.973051 
L 482.992142 197.973051 
L 482.992142 147.082741 
L 477.833436 147.082741 
z
" style="fill:#4c4c4c;"/>
   </g>
   <g id="patch_133">
    <path clip-path="url(#pd27e32b4f9)" d="M 484.281818 195.326788 
L 489.440524 195.326788 
L 489.440524 144.436478 
L 484.281818 144.436478 
z
" style="fill:#4c4c4c;"/>
   </g>
   <g id="patch_134">
    <path clip-path="url(#pd27e32b4f9)" d="M 490.7302 192.680526 
L 495.888906 192.680526 
L 495.888906 141.790216 
L 490.7302 141.790216 
z
" style="fill:#4c4c4c;"/>
   </g>
   <g id="patch_135">
    <path clip-path="url(#pd27e32b4f9)" d="M 497.178582 192.680526 
L 502.337288 192.680526 
L 502.337288 141.790216 
L 497.178582 141.790216 
z
" style="fill:#4c4c4c;"/>
   </g>
   <g id="patch_136">
    <path clip-path="url(#pd27e32b4f9)" d="M 503.626965 192.680526 
L 508.78567 192.680526 
L 508.78567 141.790216 
L 503.626965 141.790216 
z
" style="fill:#4c4c4c;"/>
   </g>
   <g id="patch_137">
    <path clip-path="url(#pd27e32b4f9)" d="M 510.075347 192.680526 
L 515.234052 192.680526 
L 515.234052 141.790216 
L 510.075347 141.790216 
z
" style="fill:#4c4c4c;"/>
   </g>
   <g id="patch_138">
    <path clip-path="url(#pd27e32b4f9)" d="M 516.523729 192.680526 
L 521.682435 192.680526 
L 521.682435 141.790216 
L 516.523729 141.790216 
z
" style="fill:#4c4c4c;"/>
   </g>
   <g id="patch_139">
    <path clip-path="url(#pd27e32b4f9)" d="M 522.972111 192.680526 
L 528.130817 192.680526 
L 528.130817 141.790216 
L 522.972111 141.790216 
z
" style="fill:#4c4c4c;"/>
   </g>
   <g id="patch_140">
    <path clip-path="url(#pd27e32b4f9)" d="M 529.420493 192.680526 
L 534.579199 192.680526 
L 534.579199 141.790216 
L 529.420493 141.790216 
z
" style="fill:#4c4c4c;"/>
   </g>
   <g id="patch_141">
    <path clip-path="url(#pd27e32b4f9)" d="M 535.868875 192.680526 
L 541.027581 192.680526 
L 541.027581 141.790216 
L 535.868875 141.790216 
z
" style="fill:#4c4c4c;"/>
   </g>
   <g id="patch_142">
    <path clip-path="url(#pd27e32b4f9)" d="M 542.317257 192.680526 
L 547.475963 192.680526 
L 547.475963 141.790216 
L 542.317257 141.790216 
z
" style="fill:#4c4c4c;"/>
   </g>
   <g id="patch_143">
    <path clip-path="url(#pd27e32b4f9)" d="M 548.765639 192.680526 
L 553.924345 192.680526 
L 553.924345 141.790216 
L 548.765639 141.790216 
z
" style="fill:#4c4c4c;"/>
   </g>
   <g id="patch_144">
    <path clip-path="url(#pd27e32b4f9)" d="M 555.214022 192.680526 
L 560.372727 192.680526 
L 560.372727 141.790216 
L 555.214022 141.790216 
z
" style="fill:#4c4c4c;"/>
   </g>
   <g id="patch_145">
    <path clip-path="url(#pd27e32b4f9)" d="M 103.827273 378 
L 108.985978 378 
L 108.985978 378 
L 103.827273 378 
z
" style="fill:#999999;"/>
   </g>
   <g id="patch_146">
    <path clip-path="url(#pd27e32b4f9)" d="M 110.275655 378 
L 115.434361 378 
L 115.434361 378 
L 110.275655 378 
z
" style="fill:#999999;"/>
   </g>
   <g id="patch_147">
    <path clip-path="url(#pd27e32b4f9)" d="M 116.724037 378 
L 121.882743 378 
L 121.882743 378 
L 116.724037 378 
z
" style="fill:#999999;"/>
   </g>
   <g id="patch_148">
    <path clip-path="url(#pd27e32b4f9)" d="M 123.172419 378 
L 128.331125 378 
L 128.331125 378 
L 123.172419 378 
z
" style="fill:#999999;"/>
   </g>
   <g id="patch_149">
    <path clip-path="url(#pd27e32b4f9)" d="M 129.620801 378 
L 134.779507 378 
L 134.779507 378 
L 129.620801 378 
z
" style="fill:#999999;"/>
   </g>
   <g id="patch_150">
    <path clip-path="url(#pd27e32b4f9)" d="M 136.069183 377.723069 
L 141.227889 377.723069 
L 141.227889 377.723069 
L 136.069183 377.723069 
z
" style="fill:#999999;"/>
   </g>
   <g id="patch_151">
    <path clip-path="url(#pd27e32b4f9)" d="M 142.517565 376.904061 
L 147.676271 376.904061 
L 147.676271 376.904061 
L 142.517565 376.904061 
z
" style="fill:#999999;"/>
   </g>
   <g id="patch_152">
    <path clip-path="url(#pd27e32b4f9)" d="M 148.965948 375.80223 
L 154.124653 375.80223 
L 154.124653 375.80223 
L 148.965948 375.80223 
z
" style="fill:#999999;"/>
   </g>
   <g id="patch_153">
    <path clip-path="url(#pd27e32b4f9)" d="M 155.41433 373.948168 
L 160.573035 373.948168 
L 160.573035 373.948168 
L 155.41433 373.948168 
z
" style="fill:#999999;"/>
   </g>
   <g id="patch_154">
    <path clip-path="url(#pd27e32b4f9)" d="M 161.862712 371.33402 
L 167.021418 371.33402 
L 167.021418 371.33402 
L 161.862712 371.33402 
z
" style="fill:#999999;"/>
   </g>
   <g id="patch_155">
    <path clip-path="url(#pd27e32b4f9)" d="M 168.311094 367.706422 
L 173.4698 367.706422 
L 173.4698 367.706422 
L 168.311094 367.706422 
z
" style="fill:#999999;"/>
   </g>
   <g id="patch_156">
    <path clip-path="url(#pd27e32b4f9)" d="M 174.759476 364.043472 
L 179.918182 364.043472 
L 179.918182 364.043472 
L 174.759476 364.043472 
z
" style="fill:#999999;"/>
   </g>
   <g id="patch_157">
    <path clip-path="url(#pd27e32b4f9)" d="M 181.207858 362.658818 
L 186.366564 362.658818 
L 186.366564 362.658818 
L 181.207858 362.658818 
z
" style="fill:#999999;"/>
   </g>
   <g id="patch_158">
    <path clip-path="url(#pd27e32b4f9)" d="M 187.65624 360.832253 
L 192.814946 360.832253 
L 192.814946 360.832253 
L 187.65624 360.832253 
z
" style="fill:#999999;"/>
   </g>
   <g id="patch_159">
    <path clip-path="url(#pd27e32b4f9)" d="M 194.104622 358.198464 
L 199.263328 358.198464 
L 199.263328 358.198464 
L 194.104622 358.198464 
z
" style="fill:#999999;"/>
   </g>
   <g id="patch_160">
    <path clip-path="url(#pd27e32b4f9)" d="M 200.553005 354.040574 
L 205.71171 354.040574 
L 205.71171 354.040574 
L 200.553005 354.040574 
z
" style="fill:#999999;"/>
   </g>
   <g id="patch_161">
    <path clip-path="url(#pd27e32b4f9)" d="M 207.001387 350.996299 
L 212.160092 350.996299 
L 212.160092 350.996299 
L 207.001387 350.996299 
z
" style="fill:#999999;"/>
   </g>
   <g id="patch_162">
    <path clip-path="url(#pd27e32b4f9)" d="M 213.449769 346.909114 
L 218.608475 346.909114 
L 218.608475 346.909114 
L 213.449769 346.909114 
z
" style="fill:#999999;"/>
   </g>
   <g id="patch_163">
    <path clip-path="url(#pd27e32b4f9)" d="M 219.898151 342.647129 
L 225.056857 342.647129 
L 225.056857 342.647129 
L 219.898151 342.647129 
z
" style="fill:#999999;"/>
   </g>
   <g id="patch_164">
    <path clip-path="url(#pd27e32b4f9)" d="M 226.346533 338.750457 
L 231.505239 338.750457 
L 231.505239 338.750457 
L 226.346533 338.750457 
z
" style="fill:#999999;"/>
   </g>
   <g id="patch_165">
    <path clip-path="url(#pd27e32b4f9)" d="M 232.794915 334.622027 
L 237.953621 334.622027 
L 237.953621 334.622027 
L 232.794915 334.622027 
z
" style="fill:#999999;"/>
   </g>
   <g id="patch_166">
    <path clip-path="url(#pd27e32b4f9)" d="M 239.243297 329.963304 
L 244.402003 329.963304 
L 244.402003 329.963304 
L 239.243297 329.963304 
z
" style="fill:#999999;"/>
   </g>
   <g id="patch_167">
    <path clip-path="url(#pd27e32b4f9)" d="M 245.69168 325.041399 
L 250.850385 325.041399 
L 250.850385 325.041399 
L 245.69168 325.041399 
z
" style="fill:#999999;"/>
   </g>
   <g id="patch_168">
    <path clip-path="url(#pd27e32b4f9)" d="M 252.140062 320.082177 
L 257.298767 320.082177 
L 257.298767 320.082177 
L 252.140062 320.082177 
z
" style="fill:#999999;"/>
   </g>
   <g id="patch_169">
    <path clip-path="url(#pd27e32b4f9)" d="M 258.588444 316.582243 
L 263.747149 316.582243 
L 263.747149 316.582243 
L 258.588444 316.582243 
z
" style="fill:#999999;"/>
   </g>
   <g id="patch_170">
    <path clip-path="url(#pd27e32b4f9)" d="M 265.036826 312.75824 
L 270.195532 312.75824 
L 270.195532 312.75824 
L 265.036826 312.75824 
z
" style="fill:#999999;"/>
   </g>
   <g id="patch_171">
    <path clip-path="url(#pd27e32b4f9)" d="M 271.485208 309.048153 
L 276.643914 309.048153 
L 276.643914 309.048153 
L 271.485208 309.048153 
z
" style="fill:#999999;"/>
   </g>
   <g id="patch_172">
    <path clip-path="url(#pd27e32b4f9)" d="M 277.93359 305.182906 
L 283.092296 305.182906 
L 283.092296 305.182906 
L 277.93359 305.182906 
z
" style="fill:#999999;"/>
   </g>
   <g id="patch_173">
    <path clip-path="url(#pd27e32b4f9)" d="M 284.381972 301.074117 
L 289.540678 301.074117 
L 289.540678 301.074117 
L 284.381972 301.074117 
z
" style="fill:#999999;"/>
   </g>
   <g id="patch_174">
    <path clip-path="url(#pd27e32b4f9)" d="M 290.830354 296.061865 
L 295.98906 296.061865 
L 295.98906 296.061865 
L 290.830354 296.061865 
z
" style="fill:#999999;"/>
   </g>
   <g id="patch_175">
    <path clip-path="url(#pd27e32b4f9)" d="M 297.278737 291.933435 
L 302.437442 291.933435 
L 302.437442 291.933435 
L 297.278737 291.933435 
z
" style="fill:#999999;"/>
   </g>
   <g id="patch_176">
    <path clip-path="url(#pd27e32b4f9)" d="M 303.727119 288.618122 
L 308.885824 288.618122 
L 308.885824 288.618122 
L 303.727119 288.618122 
z
" style="fill:#999999;"/>
   </g>
   <g id="patch_177">
    <path clip-path="url(#pd27e32b4f9)" d="M 310.175501 285.29888 
L 315.334206 285.29888 
L 315.334206 285.29888 
L 310.175501 285.29888 
z
" style="fill:#999999;"/>
   </g>
   <g id="patch_178">
    <path clip-path="url(#pd27e32b4f9)" d="M 316.623883 280.302341 
L 321.782589 280.302341 
L 321.782589 280.302341 
L 316.623883 280.302341 
z
" style="fill:#999999;"/>
   </g>
   <g id="patch_179">
    <path clip-path="url(#pd27e32b4f9)" d="M 323.072265 275.757533 
L 328.230971 275.757533 
L 328.230971 275.757533 
L 323.072265 275.757533 
z
" style="fill:#999999;"/>
   </g>
   <g id="patch_180">
    <path clip-path="url(#pd27e32b4f9)" d="M 329.520647 271.562325 
L 334.679353 271.562325 
L 334.679353 271.562325 
L 329.520647 271.562325 
z
" style="fill:#999999;"/>
   </g>
   <g id="patch_181">
    <path clip-path="url(#pd27e32b4f9)" d="M 335.969029 267.903898 
L 341.127735 267.903898 
L 341.127735 267.903898 
L 335.969029 267.903898 
z
" style="fill:#999999;"/>
   </g>
   <g id="patch_182">
    <path clip-path="url(#pd27e32b4f9)" d="M 342.417411 261.427656 
L 347.576117 261.427656 
L 347.576117 261.427656 
L 342.417411 261.427656 
z
" style="fill:#999999;"/>
   </g>
   <g id="patch_183">
    <path clip-path="url(#pd27e32b4f9)" d="M 348.865794 250.849796 
L 354.024499 250.849796 
L 354.024499 250.849796 
L 348.865794 250.849796 
z
" style="fill:#999999;"/>
   </g>
   <g id="patch_184">
    <path clip-path="url(#pd27e32b4f9)" d="M 355.314176 246.964051 
L 360.472881 246.964051 
L 360.472881 246.964051 
L 355.314176 246.964051 
z
" style="fill:#999999;"/>
   </g>
   <g id="patch_185">
    <path clip-path="url(#pd27e32b4f9)" d="M 361.762558 244.762897 
L 366.921263 244.762897 
L 366.921263 244.762897 
L 361.762558 244.762897 
z
" style="fill:#999999;"/>
   </g>
   <g id="patch_186">
    <path clip-path="url(#pd27e32b4f9)" d="M 368.21094 236.796736 
L 373.369646 236.796736 
L 373.369646 236.796736 
L 368.21094 236.796736 
z
" style="fill:#999999;"/>
   </g>
   <g id="patch_187">
    <path clip-path="url(#pd27e32b4f9)" d="M 374.659322 227.103577 
L 379.818028 227.103577 
L 379.818028 227.103577 
L 374.659322 227.103577 
z
" style="fill:#999999;"/>
   </g>
   <g id="patch_188">
    <path clip-path="url(#pd27e32b4f9)" d="M 381.107704 218.900338 
L 386.26641 218.900338 
L 386.26641 218.900338 
L 381.107704 218.900338 
z
" style="fill:#999999;"/>
   </g>
   <g id="patch_189">
    <path clip-path="url(#pd27e32b4f9)" d="M 387.556086 212.424097 
L 392.714792 212.424097 
L 392.714792 212.424097 
L 387.556086 212.424097 
z
" style="fill:#999999;"/>
   </g>
   <g id="patch_190">
    <path clip-path="url(#pd27e32b4f9)" d="M 394.004468 208.538352 
L 399.163174 208.538352 
L 399.163174 208.538352 
L 394.004468 208.538352 
z
" style="fill:#999999;"/>
   </g>
   <g id="patch_191">
    <path clip-path="url(#pd27e32b4f9)" d="M 400.452851 204.220858 
L 405.611556 204.220858 
L 405.611556 204.220858 
L 400.452851 204.220858 
z
" style="fill:#999999;"/>
   </g>
   <g id="patch_192">
    <path clip-path="url(#pd27e32b4f9)" d="M 406.901233 201.458745 
L 412.059938 201.458745 
L 412.059938 201.458745 
L 406.901233 201.458745 
z
" style="fill:#999999;"/>
   </g>
   <g id="patch_193">
    <path clip-path="url(#pd27e32b4f9)" d="M 413.349615 198.836872 
L 418.50832 198.836872 
L 418.50832 198.836872 
L 413.349615 198.836872 
z
" style="fill:#999999;"/>
   </g>
   <g id="patch_194">
    <path clip-path="url(#pd27e32b4f9)" d="M 419.797997 195.257434 
L 424.956703 195.257434 
L 424.956703 195.257434 
L 419.797997 195.257434 
z
" style="fill:#999999;"/>
   </g>
   <g id="patch_195">
    <path clip-path="url(#pd27e32b4f9)" d="M 426.246379 188.462004 
L 431.405085 188.462004 
L 431.405085 188.462004 
L 426.246379 188.462004 
z
" style="fill:#999999;"/>
   </g>
   <g id="patch_196">
    <path clip-path="url(#pd27e32b4f9)" d="M 432.694761 183.065136 
L 437.853467 183.065136 
L 437.853467 183.065136 
L 432.694761 183.065136 
z
" style="fill:#999999;"/>
   </g>
   <g id="patch_197">
    <path clip-path="url(#pd27e32b4f9)" d="M 439.143143 178.531768 
L 444.301849 178.531768 
L 444.301849 169.896779 
L 439.143143 169.896779 
z
" style="fill:#999999;"/>
   </g>
   <g id="patch_198">
    <path clip-path="url(#pd27e32b4f9)" d="M 445.591525 175.672097 
L 450.750231 175.672097 
L 450.750231 160.884679 
L 445.591525 160.884679 
z
" style="fill:#999999;"/>
   </g>
   <g id="patch_199">
    <path clip-path="url(#pd27e32b4f9)" d="M 452.039908 170.766009 
L 457.198613 170.766009 
L 457.198613 153.949369 
L 452.039908 153.949369 
z
" style="fill:#999999;"/>
   </g>
   <g id="patch_200">
    <path clip-path="url(#pd27e32b4f9)" d="M 458.48829 165.557697 
L 463.646995 165.557697 
L 463.646995 148.741058 
L 458.48829 148.741058 
z
" style="fill:#999999;"/>
   </g>
   <g id="patch_201">
    <path clip-path="url(#pd27e32b4f9)" d="M 464.936672 156.706834 
L 470.095378 156.706834 
L 470.095378 139.890194 
L 464.936672 139.890194 
z
" style="fill:#999999;"/>
   </g>
   <g id="patch_202">
    <path clip-path="url(#pd27e32b4f9)" d="M 471.385054 151.894788 
L 476.54376 151.894788 
L 476.54376 133.7829 
L 471.385054 133.7829 
z
" style="fill:#999999;"/>
   </g>
   <g id="patch_203">
    <path clip-path="url(#pd27e32b4f9)" d="M 477.833436 147.082741 
L 482.992142 147.082741 
L 482.992142 128.970853 
L 477.833436 128.970853 
z
" style="fill:#999999;"/>
   </g>
   <g id="patch_204">
    <path clip-path="url(#pd27e32b4f9)" d="M 484.281818 144.436478 
L 489.440524 144.436478 
L 489.440524 126.32459 
L 484.281818 126.32459 
z
" style="fill:#999999;"/>
   </g>
   <g id="patch_205">
    <path clip-path="url(#pd27e32b4f9)" d="M 490.7302 141.790216 
L 495.888906 141.790216 
L 495.888906 123.678327 
L 490.7302 123.678327 
z
" style="fill:#999999;"/>
   </g>
   <g id="patch_206">
    <path clip-path="url(#pd27e32b4f9)" d="M 497.178582 141.790216 
L 502.337288 141.790216 
L 502.337288 123.678327 
L 497.178582 123.678327 
z
" style="fill:#999999;"/>
   </g>
   <g id="patch_207">
    <path clip-path="url(#pd27e32b4f9)" d="M 503.626965 141.790216 
L 508.78567 141.790216 
L 508.78567 123.678327 
L 503.626965 123.678327 
z
" style="fill:#999999;"/>
   </g>
   <g id="patch_208">
    <path clip-path="url(#pd27e32b4f9)" d="M 510.075347 141.790216 
L 515.234052 141.790216 
L 515.234052 123.678327 
L 510.075347 123.678327 
z
" style="fill:#999999;"/>
   </g>
   <g id="patch_209">
    <path clip-path="url(#pd27e32b4f9)" d="M 516.523729 141.790216 
L 521.682435 141.790216 
L 521.682435 123.678327 
L 516.523729 123.678327 
z
" style="fill:#999999;"/>
   </g>
   <g id="patch_210">
    <path clip-path="url(#pd27e32b4f9)" d="M 522.972111 141.790216 
L 528.130817 141.790216 
L 528.130817 123.678327 
L 522.972111 123.678327 
z
" style="fill:#999999;"/>
   </g>
   <g id="patch_211">
    <path clip-path="url(#pd27e32b4f9)" d="M 529.420493 141.790216 
L 534.579199 141.790216 
L 534.579199 123.678327 
L 529.420493 123.678327 
z
" style="fill:#999999;"/>
   </g>
   <g id="patch_212">
    <path clip-path="url(#pd27e32b4f9)" d="M 535.868875 141.790216 
L 541.027581 141.790216 
L 541.027581 123.678327 
L 535.868875 123.678327 
z
" style="fill:#999999;"/>
   </g>
   <g id="patch_213">
    <path clip-path="url(#pd27e32b4f9)" d="M 542.317257 141.790216 
L 547.475963 141.790216 
L 547.475963 123.678327 
L 542.317257 123.678327 
z
" style="fill:#999999;"/>
   </g>
   <g id="patch_214">
    <path clip-path="url(#pd27e32b4f9)" d="M 548.765639 141.790216 
L 553.924345 141.790216 
L 553.924345 123.678327 
L 548.765639 123.678327 
z
" style="fill:#999999;"/>
   </g>
   <g id="patch_215">
    <path clip-path="url(#pd27e32b4f9)" d="M 555.214022 141.790216 
L 560.372727 141.790216 
L 560.372727 123.678327 
L 555.214022 123.678327 
z
" style="fill:#999999;"/>
   </g>
   <g id="patch_216">
    <path clip-path="url(#pd27e32b4f9)" d="M 103.827273 378 
L 108.985978 378 
L 108.985978 378 
L 103.827273 378 
z
" style="fill:#cccccc;"/>
   </g>
   <g id="patch_217">
    <path clip-path="url(#pd27e32b4f9)" d="M 110.275655 378 
L 115.434361 378 
L 115.434361 378 
L 110.275655 378 
z
" style="fill:#cccccc;"/>
   </g>
   <g id="patch_218">
    <path clip-path="url(#pd27e32b4f9)" d="M 116.724037 378 
L 121.882743 378 
L 121.882743 378 
L 116.724037 378 
z
" style="fill:#cccccc;"/>
   </g>
   <g id="patch_219">
    <path clip-path="url(#pd27e32b4f9)" d="M 123.172419 378 
L 128.331125 378 
L 128.331125 378 
L 123.172419 378 
z
" style="fill:#cccccc;"/>
   </g>
   <g id="patch_220">
    <path clip-path="url(#pd27e32b4f9)" d="M 129.620801 378 
L 134.779507 378 
L 134.779507 378 
L 129.620801 378 
z
" style="fill:#cccccc;"/>
   </g>
   <g id="patch_221">
    <path clip-path="url(#pd27e32b4f9)" d="M 136.069183 377.723069 
L 141.227889 377.723069 
L 141.227889 377.723069 
L 136.069183 377.723069 
z
" style="fill:#cccccc;"/>
   </g>
   <g id="patch_222">
    <path clip-path="url(#pd27e32b4f9)" d="M 142.517565 376.904061 
L 147.676271 376.904061 
L 147.676271 376.904061 
L 142.517565 376.904061 
z
" style="fill:#cccccc;"/>
   </g>
   <g id="patch_223">
    <path clip-path="url(#pd27e32b4f9)" d="M 148.965948 375.80223 
L 154.124653 375.80223 
L 154.124653 375.80223 
L 148.965948 375.80223 
z
" style="fill:#cccccc;"/>
   </g>
   <g id="patch_224">
    <path clip-path="url(#pd27e32b4f9)" d="M 155.41433 373.948168 
L 160.573035 373.948168 
L 160.573035 373.948168 
L 155.41433 373.948168 
z
" style="fill:#cccccc;"/>
   </g>
   <g id="patch_225">
    <path clip-path="url(#pd27e32b4f9)" d="M 161.862712 371.33402 
L 167.021418 371.33402 
L 167.021418 371.33402 
L 161.862712 371.33402 
z
" style="fill:#cccccc;"/>
   </g>
   <g id="patch_226">
    <path clip-path="url(#pd27e32b4f9)" d="M 168.311094 367.706422 
L 173.4698 367.706422 
L 173.4698 367.706422 
L 168.311094 367.706422 
z
" style="fill:#cccccc;"/>
   </g>
   <g id="patch_227">
    <path clip-path="url(#pd27e32b4f9)" d="M 174.759476 364.043472 
L 179.918182 364.043472 
L 179.918182 364.043472 
L 174.759476 364.043472 
z
" style="fill:#cccccc;"/>
   </g>
   <g id="patch_228">
    <path clip-path="url(#pd27e32b4f9)" d="M 181.207858 362.658818 
L 186.366564 362.658818 
L 186.366564 362.658818 
L 181.207858 362.658818 
z
" style="fill:#cccccc;"/>
   </g>
   <g id="patch_229">
    <path clip-path="url(#pd27e32b4f9)" d="M 187.65624 360.832253 
L 192.814946 360.832253 
L 192.814946 360.832253 
L 187.65624 360.832253 
z
" style="fill:#cccccc;"/>
   </g>
   <g id="patch_230">
    <path clip-path="url(#pd27e32b4f9)" d="M 194.104622 358.198464 
L 199.263328 358.198464 
L 199.263328 358.198464 
L 194.104622 358.198464 
z
" style="fill:#cccccc;"/>
   </g>
   <g id="patch_231">
    <path clip-path="url(#pd27e32b4f9)" d="M 200.553005 354.040574 
L 205.71171 354.040574 
L 205.71171 354.040574 
L 200.553005 354.040574 
z
" style="fill:#cccccc;"/>
   </g>
   <g id="patch_232">
    <path clip-path="url(#pd27e32b4f9)" d="M 207.001387 350.996299 
L 212.160092 350.996299 
L 212.160092 350.996299 
L 207.001387 350.996299 
z
" style="fill:#cccccc;"/>
   </g>
   <g id="patch_233">
    <path clip-path="url(#pd27e32b4f9)" d="M 213.449769 346.909114 
L 218.608475 346.909114 
L 218.608475 346.909114 
L 213.449769 346.909114 
z
" style="fill:#cccccc;"/>
   </g>
   <g id="patch_234">
    <path clip-path="url(#pd27e32b4f9)" d="M 219.898151 342.647129 
L 225.056857 342.647129 
L 225.056857 342.647129 
L 219.898151 342.647129 
z
" style="fill:#cccccc;"/>
   </g>
   <g id="patch_235">
    <path clip-path="url(#pd27e32b4f9)" d="M 226.346533 338.750457 
L 231.505239 338.750457 
L 231.505239 338.750457 
L 226.346533 338.750457 
z
" style="fill:#cccccc;"/>
   </g>
   <g id="patch_236">
    <path clip-path="url(#pd27e32b4f9)" d="M 232.794915 334.622027 
L 237.953621 334.622027 
L 237.953621 334.622027 
L 232.794915 334.622027 
z
" style="fill:#cccccc;"/>
   </g>
   <g id="patch_237">
    <path clip-path="url(#pd27e32b4f9)" d="M 239.243297 329.963304 
L 244.402003 329.963304 
L 244.402003 329.963304 
L 239.243297 329.963304 
z
" style="fill:#cccccc;"/>
   </g>
   <g id="patch_238">
    <path clip-path="url(#pd27e32b4f9)" d="M 245.69168 325.041399 
L 250.850385 325.041399 
L 250.850385 325.041399 
L 245.69168 325.041399 
z
" style="fill:#cccccc;"/>
   </g>
   <g id="patch_239">
    <path clip-path="url(#pd27e32b4f9)" d="M 252.140062 320.082177 
L 257.298767 320.082177 
L 257.298767 320.082177 
L 252.140062 320.082177 
z
" style="fill:#cccccc;"/>
   </g>
   <g id="patch_240">
    <path clip-path="url(#pd27e32b4f9)" d="M 258.588444 316.582243 
L 263.747149 316.582243 
L 263.747149 316.582243 
L 258.588444 316.582243 
z
" style="fill:#cccccc;"/>
   </g>
   <g id="patch_241">
    <path clip-path="url(#pd27e32b4f9)" d="M 265.036826 312.75824 
L 270.195532 312.75824 
L 270.195532 312.75824 
L 265.036826 312.75824 
z
" style="fill:#cccccc;"/>
   </g>
   <g id="patch_242">
    <path clip-path="url(#pd27e32b4f9)" d="M 271.485208 309.048153 
L 276.643914 309.048153 
L 276.643914 309.048153 
L 271.485208 309.048153 
z
" style="fill:#cccccc;"/>
   </g>
   <g id="patch_243">
    <path clip-path="url(#pd27e32b4f9)" d="M 277.93359 305.182906 
L 283.092296 305.182906 
L 283.092296 305.182906 
L 277.93359 305.182906 
z
" style="fill:#cccccc;"/>
   </g>
   <g id="patch_244">
    <path clip-path="url(#pd27e32b4f9)" d="M 284.381972 301.074117 
L 289.540678 301.074117 
L 289.540678 301.074117 
L 284.381972 301.074117 
z
" style="fill:#cccccc;"/>
   </g>
   <g id="patch_245">
    <path clip-path="url(#pd27e32b4f9)" d="M 290.830354 296.061865 
L 295.98906 296.061865 
L 295.98906 296.061865 
L 290.830354 296.061865 
z
" style="fill:#cccccc;"/>
   </g>
   <g id="patch_246">
    <path clip-path="url(#pd27e32b4f9)" d="M 297.278737 291.933435 
L 302.437442 291.933435 
L 302.437442 291.933435 
L 297.278737 291.933435 
z
" style="fill:#cccccc;"/>
   </g>
   <g id="patch_247">
    <path clip-path="url(#pd27e32b4f9)" d="M 303.727119 288.618122 
L 308.885824 288.618122 
L 308.885824 288.618122 
L 303.727119 288.618122 
z
" style="fill:#cccccc;"/>
   </g>
   <g id="patch_248">
    <path clip-path="url(#pd27e32b4f9)" d="M 310.175501 285.29888 
L 315.334206 285.29888 
L 315.334206 285.29888 
L 310.175501 285.29888 
z
" style="fill:#cccccc;"/>
   </g>
   <g id="patch_249">
    <path clip-path="url(#pd27e32b4f9)" d="M 316.623883 280.302341 
L 321.782589 280.302341 
L 321.782589 280.302341 
L 316.623883 280.302341 
z
" style="fill:#cccccc;"/>
   </g>
   <g id="patch_250">
    <path clip-path="url(#pd27e32b4f9)" d="M 323.072265 275.757533 
L 328.230971 275.757533 
L 328.230971 275.757533 
L 323.072265 275.757533 
z
" style="fill:#cccccc;"/>
   </g>
   <g id="patch_251">
    <path clip-path="url(#pd27e32b4f9)" d="M 329.520647 271.562325 
L 334.679353 271.562325 
L 334.679353 271.562325 
L 329.520647 271.562325 
z
" style="fill:#cccccc;"/>
   </g>
   <g id="patch_252">
    <path clip-path="url(#pd27e32b4f9)" d="M 335.969029 267.903898 
L 341.127735 267.903898 
L 341.127735 259.700659 
L 335.969029 259.700659 
z
" style="fill:#cccccc;"/>
   </g>
   <g id="patch_253">
    <path clip-path="url(#pd27e32b4f9)" d="M 342.417411 261.427656 
L 347.576117 261.427656 
L 347.576117 248.259299 
L 342.417411 248.259299 
z
" style="fill:#cccccc;"/>
   </g>
   <g id="patch_254">
    <path clip-path="url(#pd27e32b4f9)" d="M 348.865794 250.849796 
L 354.024499 250.849796 
L 354.024499 228.830575 
L 348.865794 228.830575 
z
" style="fill:#cccccc;"/>
   </g>
   <g id="patch_255">
    <path clip-path="url(#pd27e32b4f9)" d="M 355.314176 246.964051 
L 360.472881 246.964051 
L 360.472881 221.490835 
L 355.314176 221.490835 
z
" style="fill:#cccccc;"/>
   </g>
   <g id="patch_256">
    <path clip-path="url(#pd27e32b4f9)" d="M 361.762558 244.762897 
L 366.921263 244.762897 
L 366.921263 208.927695 
L 361.762558 208.927695 
z
" style="fill:#cccccc;"/>
   </g>
   <g id="patch_257">
    <path clip-path="url(#pd27e32b4f9)" d="M 368.21094 236.796736 
L 373.369646 236.796736 
L 373.369646 199.88216 
L 368.21094 199.88216 
z
" style="fill:#cccccc;"/>
   </g>
   <g id="patch_258">
    <path clip-path="url(#pd27e32b4f9)" d="M 374.659322 227.103577 
L 379.818028 227.103577 
L 379.818028 181.985763 
L 374.659322 181.985763 
z
" style="fill:#cccccc;"/>
   </g>
   <g id="patch_259">
    <path clip-path="url(#pd27e32b4f9)" d="M 381.107704 218.900338 
L 386.26641 218.900338 
L 386.26641 170.328529 
L 381.107704 170.328529 
z
" style="fill:#cccccc;"/>
   </g>
   <g id="patch_260">
    <path clip-path="url(#pd27e32b4f9)" d="M 387.556086 212.424097 
L 392.714792 212.424097 
L 392.714792 156.512547 
L 387.556086 156.512547 
z
" style="fill:#cccccc;"/>
   </g>
   <g id="patch_261">
    <path clip-path="url(#pd27e32b4f9)" d="M 394.004468 208.538352 
L 399.163174 208.538352 
L 399.163174 151.331554 
L 394.004468 151.331554 
z
" style="fill:#cccccc;"/>
   </g>
   <g id="patch_262">
    <path clip-path="url(#pd27e32b4f9)" d="M 400.452851 204.220858 
L 405.611556 204.220858 
L 405.611556 147.01406 
L 400.452851 147.01406 
z
" style="fill:#cccccc;"/>
   </g>
   <g id="patch_263">
    <path clip-path="url(#pd27e32b4f9)" d="M 406.901233 201.458745 
L 412.059938 201.458745 
L 412.059938 143.604323 
L 406.901233 143.604323 
z
" style="fill:#cccccc;"/>
   </g>
   <g id="patch_264">
    <path clip-path="url(#pd27e32b4f9)" d="M 413.349615 198.836872 
L 418.50832 198.836872 
L 418.50832 140.5507 
L 413.349615 140.5507 
z
" style="fill:#cccccc;"/>
   </g>
   <g id="patch_265">
    <path clip-path="url(#pd27e32b4f9)" d="M 419.797997 195.257434 
L 424.956703 195.257434 
L 424.956703 135.460139 
L 419.797997 135.460139 
z
" style="fill:#cccccc;"/>
   </g>
   <g id="patch_266">
    <path clip-path="url(#pd27e32b4f9)" d="M 426.246379 188.462004 
L 431.405085 188.462004 
L 431.405085 130.175832 
L 426.246379 130.175832 
z
" style="fill:#cccccc;"/>
   </g>
   <g id="patch_267">
    <path clip-path="url(#pd27e32b4f9)" d="M 432.694761 183.065136 
L 437.853467 183.065136 
L 437.853467 122.836092 
L 432.694761 122.836092 
z
" style="fill:#cccccc;"/>
   </g>
   <g id="patch_268">
    <path clip-path="url(#pd27e32b4f9)" d="M 439.143143 169.896779 
L 444.301849 169.896779 
L 444.301849 118.518598 
L 439.143143 118.518598 
z
" style="fill:#cccccc;"/>
   </g>
   <g id="patch_269">
    <path clip-path="url(#pd27e32b4f9)" d="M 445.591525 160.884679 
L 450.750231 160.884679 
L 450.750231 110.369997 
L 445.591525 110.369997 
z
" style="fill:#cccccc;"/>
   </g>
   <g id="patch_270">
    <path clip-path="url(#pd27e32b4f9)" d="M 452.039908 153.949369 
L 457.198613 153.949369 
L 457.198613 104.298186 
L 452.039908 104.298186 
z
" style="fill:#cccccc;"/>
   </g>
   <g id="patch_271">
    <path clip-path="url(#pd27e32b4f9)" d="M 458.48829 148.741058 
L 463.646995 148.741058 
L 463.646995 98.658125 
L 458.48829 98.658125 
z
" style="fill:#cccccc;"/>
   </g>
   <g id="patch_272">
    <path clip-path="url(#pd27e32b4f9)" d="M 464.936672 139.890194 
L 470.095378 139.890194 
L 470.095378 89.807262 
L 464.936672 89.807262 
z
" style="fill:#cccccc;"/>
   </g>
   <g id="patch_273">
    <path clip-path="url(#pd27e32b4f9)" d="M 471.385054 133.7829 
L 476.54376 133.7829 
L 476.54376 80.587984 
L 471.385054 80.587984 
z
" style="fill:#cccccc;"/>
   </g>
   <g id="patch_274">
    <path clip-path="url(#pd27e32b4f9)" d="M 477.833436 128.970853 
L 482.992142 128.970853 
L 482.992142 72.663954 
L 477.833436 72.663954 
z
" style="fill:#cccccc;"/>
   </g>
   <g id="patch_275">
    <path clip-path="url(#pd27e32b4f9)" d="M 484.281818 126.32459 
L 489.440524 126.32459 
L 489.440524 70.017691 
L 484.281818 70.017691 
z
" style="fill:#cccccc;"/>
   </g>
   <g id="patch_276">
    <path clip-path="url(#pd27e32b4f9)" d="M 490.7302 123.678327 
L 495.888906 123.678327 
L 495.888906 67.371429 
L 490.7302 67.371429 
z
" style="fill:#cccccc;"/>
   </g>
   <g id="patch_277">
    <path clip-path="url(#pd27e32b4f9)" d="M 497.178582 123.678327 
L 502.337288 123.678327 
L 502.337288 67.371429 
L 497.178582 67.371429 
z
" style="fill:#cccccc;"/>
   </g>
   <g id="patch_278">
    <path clip-path="url(#pd27e32b4f9)" d="M 503.626965 123.678327 
L 508.78567 123.678327 
L 508.78567 67.371429 
L 503.626965 67.371429 
z
" style="fill:#cccccc;"/>
   </g>
   <g id="patch_279">
    <path clip-path="url(#pd27e32b4f9)" d="M 510.075347 123.678327 
L 515.234052 123.678327 
L 515.234052 67.371429 
L 510.075347 67.371429 
z
" style="fill:#cccccc;"/>
   </g>
   <g id="patch_280">
    <path clip-path="url(#pd27e32b4f9)" d="M 516.523729 123.678327 
L 521.682435 123.678327 
L 521.682435 67.371429 
L 516.523729 67.371429 
z
" style="fill:#cccccc;"/>
   </g>
   <g id="patch_281">
    <path clip-path="url(#pd27e32b4f9)" d="M 522.972111 123.678327 
L 528.130817 123.678327 
L 528.130817 67.371429 
L 522.972111 67.371429 
z
" style="fill:#cccccc;"/>
   </g>
   <g id="patch_282">
    <path clip-path="url(#pd27e32b4f9)" d="M 529.420493 123.678327 
L 534.579199 123.678327 
L 534.579199 67.371429 
L 529.420493 67.371429 
z
" style="fill:#cccccc;"/>
   </g>
   <g id="patch_283">
    <path clip-path="url(#pd27e32b4f9)" d="M 535.868875 123.678327 
L 541.027581 123.678327 
L 541.027581 67.371429 
L 535.868875 67.371429 
z
" style="fill:#cccccc;"/>
   </g>
   <g id="patch_284">
    <path clip-path="url(#pd27e32b4f9)" d="M 542.317257 123.678327 
L 547.475963 123.678327 
L 547.475963 67.371429 
L 542.317257 67.371429 
z
" style="fill:#cccccc;"/>
   </g>
   <g id="patch_285">
    <path clip-path="url(#pd27e32b4f9)" d="M 548.765639 123.678327 
L 553.924345 123.678327 
L 553.924345 67.371429 
L 548.765639 67.371429 
z
" style="fill:#cccccc;"/>
   </g>
   <g id="patch_286">
    <path clip-path="url(#pd27e32b4f9)" d="M 555.214022 123.678327 
L 560.372727 123.678327 
L 560.372727 67.371429 
L 555.214022 67.371429 
z
" style="fill:#cccccc;"/>
   </g>
   <g id="matplotlib.axis_1">
    <g id="xtick_1">
     <g id="line2d_1">
      <path clip-path="url(#pd27e32b4f9)" d="M 106.406626 378 
L 106.406626 51.84 
" style="fill:none;stroke:#e6e6e6;stroke-linecap:square;stroke-width:0.8;"/>
     </g>
     <g id="line2d_2">
      <defs>
       <path d="M 0 0 
L 0 3.5 
" id="m604f8d94d2" style="stroke:#000000;stroke-width:0.8;"/>
      </defs>
      <g>
       <use style="stroke:#000000;stroke-width:0.8;" x="106.406626" xlink:href="#m604f8d94d2" y="378"/>
      </g>
     </g>
     <g id="text_1">
      <!-- 1960 -->
      <defs>
       <path d="M 12.40625 8.296875 
L 28.515625 8.296875 
L 28.515625 63.921875 
L 10.984375 60.40625 
L 10.984375 69.390625 
L 28.421875 72.90625 
L 38.28125 72.90625 
L 38.28125 8.296875 
L 54.390625 8.296875 
L 54.390625 0 
L 12.40625 0 
z
" id="DejaVuSans-31"/>
       <path d="M 10.984375 1.515625 
L 10.984375 10.5 
Q 14.703125 8.734375 18.5 7.8125 
Q 22.3125 6.890625 25.984375 6.890625 
Q 35.75 6.890625 40.890625 13.453125 
Q 46.046875 20.015625 46.78125 33.40625 
Q 43.953125 29.203125 39.59375 26.953125 
Q 35.25 24.703125 29.984375 24.703125 
Q 19.046875 24.703125 12.671875 31.3125 
Q 6.296875 37.9375 6.296875 49.421875 
Q 6.296875 60.640625 12.9375 67.421875 
Q 19.578125 74.21875 30.609375 74.21875 
Q 43.265625 74.21875 49.921875 64.515625 
Q 56.59375 54.828125 56.59375 36.375 
Q 56.59375 19.140625 48.40625 8.859375 
Q 40.234375 -1.421875 26.421875 -1.421875 
Q 22.703125 -1.421875 18.890625 -0.6875 
Q 15.09375 0.046875 10.984375 1.515625 
z
M 30.609375 32.421875 
Q 37.25 32.421875 41.125 36.953125 
Q 45.015625 41.5 45.015625 49.421875 
Q 45.015625 57.28125 41.125 61.84375 
Q 37.25 66.40625 30.609375 66.40625 
Q 23.96875 66.40625 20.09375 61.84375 
Q 16.21875 57.28125 16.21875 49.421875 
Q 16.21875 41.5 20.09375 36.953125 
Q 23.96875 32.421875 30.609375 32.421875 
z
" id="DejaVuSans-39"/>
       <path d="M 33.015625 40.375 
Q 26.375 40.375 22.484375 35.828125 
Q 18.609375 31.296875 18.609375 23.390625 
Q 18.609375 15.53125 22.484375 10.953125 
Q 26.375 6.390625 33.015625 6.390625 
Q 39.65625 6.390625 43.53125 10.953125 
Q 47.40625 15.53125 47.40625 23.390625 
Q 47.40625 31.296875 43.53125 35.828125 
Q 39.65625 40.375 33.015625 40.375 
z
M 52.59375 71.296875 
L 52.59375 62.3125 
Q 48.875 64.0625 45.09375 64.984375 
Q 41.3125 65.921875 37.59375 65.921875 
Q 27.828125 65.921875 22.671875 59.328125 
Q 17.53125 52.734375 16.796875 39.40625 
Q 19.671875 43.65625 24.015625 45.921875 
Q 28.375 48.1875 33.59375 48.1875 
Q 44.578125 48.1875 50.953125 41.515625 
Q 57.328125 34.859375 57.328125 23.390625 
Q 57.328125 12.15625 50.6875 5.359375 
Q 44.046875 -1.421875 33.015625 -1.421875 
Q 20.359375 -1.421875 13.671875 8.265625 
Q 6.984375 17.96875 6.984375 36.375 
Q 6.984375 53.65625 15.1875 63.9375 
Q 23.390625 74.21875 37.203125 74.21875 
Q 40.921875 74.21875 44.703125 73.484375 
Q 48.484375 72.75 52.59375 71.296875 
z
" id="DejaVuSans-36"/>
       <path d="M 31.78125 66.40625 
Q 24.171875 66.40625 20.328125 58.90625 
Q 16.5 51.421875 16.5 36.375 
Q 16.5 21.390625 20.328125 13.890625 
Q 24.171875 6.390625 31.78125 6.390625 
Q 39.453125 6.390625 43.28125 13.890625 
Q 47.125 21.390625 47.125 36.375 
Q 47.125 51.421875 43.28125 58.90625 
Q 39.453125 66.40625 31.78125 66.40625 
z
M 31.78125 74.21875 
Q 44.046875 74.21875 50.515625 64.515625 
Q 56.984375 54.828125 56.984375 36.375 
Q 56.984375 17.96875 50.515625 8.265625 
Q 44.046875 -1.421875 31.78125 -1.421875 
Q 19.53125 -1.421875 13.0625 8.265625 
Q 6.59375 17.96875 6.59375 36.375 
Q 6.59375 54.828125 13.0625 64.515625 
Q 19.53125 74.21875 31.78125 74.21875 
z
" id="DejaVuSans-30"/>
      </defs>
      <g transform="translate(93.681626 392.598437)scale(0.1 -0.1)">
       <use xlink:href="#DejaVuSans-31"/>
       <use x="63.623047" xlink:href="#DejaVuSans-39"/>
       <use x="127.246094" xlink:href="#DejaVuSans-36"/>
       <use x="190.869141" xlink:href="#DejaVuSans-30"/>
      </g>
     </g>
    </g>
    <g id="xtick_2">
     <g id="line2d_3">
      <path clip-path="url(#pd27e32b4f9)" d="M 170.890447 378 
L 170.890447 51.84 
" style="fill:none;stroke:#e6e6e6;stroke-linecap:square;stroke-width:0.8;"/>
     </g>
     <g id="line2d_4">
      <g>
       <use style="stroke:#000000;stroke-width:0.8;" x="170.890447" xlink:href="#m604f8d94d2" y="378"/>
      </g>
     </g>
     <g id="text_2">
      <!-- 1970 -->
      <defs>
       <path d="M 8.203125 72.90625 
L 55.078125 72.90625 
L 55.078125 68.703125 
L 28.609375 0 
L 18.3125 0 
L 43.21875 64.59375 
L 8.203125 64.59375 
z
" id="DejaVuSans-37"/>
      </defs>
      <g transform="translate(158.165447 392.598437)scale(0.1 -0.1)">
       <use xlink:href="#DejaVuSans-31"/>
       <use x="63.623047" xlink:href="#DejaVuSans-39"/>
       <use x="127.246094" xlink:href="#DejaVuSans-37"/>
       <use x="190.869141" xlink:href="#DejaVuSans-30"/>
      </g>
     </g>
    </g>
    <g id="xtick_3">
     <g id="line2d_5">
      <path clip-path="url(#pd27e32b4f9)" d="M 235.374268 378 
L 235.374268 51.84 
" style="fill:none;stroke:#e6e6e6;stroke-linecap:square;stroke-width:0.8;"/>
     </g>
     <g id="line2d_6">
      <g>
       <use style="stroke:#000000;stroke-width:0.8;" x="235.374268" xlink:href="#m604f8d94d2" y="378"/>
      </g>
     </g>
     <g id="text_3">
      <!-- 1980 -->
      <defs>
       <path d="M 31.78125 34.625 
Q 24.75 34.625 20.71875 30.859375 
Q 16.703125 27.09375 16.703125 20.515625 
Q 16.703125 13.921875 20.71875 10.15625 
Q 24.75 6.390625 31.78125 6.390625 
Q 38.8125 6.390625 42.859375 10.171875 
Q 46.921875 13.96875 46.921875 20.515625 
Q 46.921875 27.09375 42.890625 30.859375 
Q 38.875 34.625 31.78125 34.625 
z
M 21.921875 38.8125 
Q 15.578125 40.375 12.03125 44.71875 
Q 8.5 49.078125 8.5 55.328125 
Q 8.5 64.0625 14.71875 69.140625 
Q 20.953125 74.21875 31.78125 74.21875 
Q 42.671875 74.21875 48.875 69.140625 
Q 55.078125 64.0625 55.078125 55.328125 
Q 55.078125 49.078125 51.53125 44.71875 
Q 48 40.375 41.703125 38.8125 
Q 48.828125 37.15625 52.796875 32.3125 
Q 56.78125 27.484375 56.78125 20.515625 
Q 56.78125 9.90625 50.3125 4.234375 
Q 43.84375 -1.421875 31.78125 -1.421875 
Q 19.734375 -1.421875 13.25 4.234375 
Q 6.78125 9.90625 6.78125 20.515625 
Q 6.78125 27.484375 10.78125 32.3125 
Q 14.796875 37.15625 21.921875 38.8125 
z
M 18.3125 54.390625 
Q 18.3125 48.734375 21.84375 45.5625 
Q 25.390625 42.390625 31.78125 42.390625 
Q 38.140625 42.390625 41.71875 45.5625 
Q 45.3125 48.734375 45.3125 54.390625 
Q 45.3125 60.0625 41.71875 63.234375 
Q 38.140625 66.40625 31.78125 66.40625 
Q 25.390625 66.40625 21.84375 63.234375 
Q 18.3125 60.0625 18.3125 54.390625 
z
" id="DejaVuSans-38"/>
      </defs>
      <g transform="translate(222.649268 392.598437)scale(0.1 -0.1)">
       <use xlink:href="#DejaVuSans-31"/>
       <use x="63.623047" xlink:href="#DejaVuSans-39"/>
       <use x="127.246094" xlink:href="#DejaVuSans-38"/>
       <use x="190.869141" xlink:href="#DejaVuSans-30"/>
      </g>
     </g>
    </g>
    <g id="xtick_4">
     <g id="line2d_7">
      <path clip-path="url(#pd27e32b4f9)" d="M 299.858089 378 
L 299.858089 51.84 
" style="fill:none;stroke:#e6e6e6;stroke-linecap:square;stroke-width:0.8;"/>
     </g>
     <g id="line2d_8">
      <g>
       <use style="stroke:#000000;stroke-width:0.8;" x="299.858089" xlink:href="#m604f8d94d2" y="378"/>
      </g>
     </g>
     <g id="text_4">
      <!-- 1990 -->
      <g transform="translate(287.133089 392.598437)scale(0.1 -0.1)">
       <use xlink:href="#DejaVuSans-31"/>
       <use x="63.623047" xlink:href="#DejaVuSans-39"/>
       <use x="127.246094" xlink:href="#DejaVuSans-39"/>
       <use x="190.869141" xlink:href="#DejaVuSans-30"/>
      </g>
     </g>
    </g>
    <g id="xtick_5">
     <g id="line2d_9">
      <path clip-path="url(#pd27e32b4f9)" d="M 364.341911 378 
L 364.341911 51.84 
" style="fill:none;stroke:#e6e6e6;stroke-linecap:square;stroke-width:0.8;"/>
     </g>
     <g id="line2d_10">
      <g>
       <use style="stroke:#000000;stroke-width:0.8;" x="364.341911" xlink:href="#m604f8d94d2" y="378"/>
      </g>
     </g>
     <g id="text_5">
      <!-- 2000 -->
      <defs>
       <path d="M 19.1875 8.296875 
L 53.609375 8.296875 
L 53.609375 0 
L 7.328125 0 
L 7.328125 8.296875 
Q 12.9375 14.109375 22.625 23.890625 
Q 32.328125 33.6875 34.8125 36.53125 
Q 39.546875 41.84375 41.421875 45.53125 
Q 43.3125 49.21875 43.3125 52.78125 
Q 43.3125 58.59375 39.234375 62.25 
Q 35.15625 65.921875 28.609375 65.921875 
Q 23.96875 65.921875 18.8125 64.3125 
Q 13.671875 62.703125 7.8125 59.421875 
L 7.8125 69.390625 
Q 13.765625 71.78125 18.9375 73 
Q 24.125 74.21875 28.421875 74.21875 
Q 39.75 74.21875 46.484375 68.546875 
Q 53.21875 62.890625 53.21875 53.421875 
Q 53.21875 48.921875 51.53125 44.890625 
Q 49.859375 40.875 45.40625 35.40625 
Q 44.1875 33.984375 37.640625 27.21875 
Q 31.109375 20.453125 19.1875 8.296875 
z
" id="DejaVuSans-32"/>
      </defs>
      <g transform="translate(351.616911 392.598437)scale(0.1 -0.1)">
       <use xlink:href="#DejaVuSans-32"/>
       <use x="63.623047" xlink:href="#DejaVuSans-30"/>
       <use x="127.246094" xlink:href="#DejaVuSans-30"/>
       <use x="190.869141" xlink:href="#DejaVuSans-30"/>
      </g>
     </g>
    </g>
    <g id="xtick_6">
     <g id="line2d_11">
      <path clip-path="url(#pd27e32b4f9)" d="M 428.825732 378 
L 428.825732 51.84 
" style="fill:none;stroke:#e6e6e6;stroke-linecap:square;stroke-width:0.8;"/>
     </g>
     <g id="line2d_12">
      <g>
       <use style="stroke:#000000;stroke-width:0.8;" x="428.825732" xlink:href="#m604f8d94d2" y="378"/>
      </g>
     </g>
     <g id="text_6">
      <!-- 2010 -->
      <g transform="translate(416.100732 392.598437)scale(0.1 -0.1)">
       <use xlink:href="#DejaVuSans-32"/>
       <use x="63.623047" xlink:href="#DejaVuSans-30"/>
       <use x="127.246094" xlink:href="#DejaVuSans-31"/>
       <use x="190.869141" xlink:href="#DejaVuSans-30"/>
      </g>
     </g>
    </g>
    <g id="xtick_7">
     <g id="line2d_13">
      <path clip-path="url(#pd27e32b4f9)" d="M 493.309553 378 
L 493.309553 51.84 
" style="fill:none;stroke:#e6e6e6;stroke-linecap:square;stroke-width:0.8;"/>
     </g>
     <g id="line2d_14">
      <g>
       <use style="stroke:#000000;stroke-width:0.8;" x="493.309553" xlink:href="#m604f8d94d2" y="378"/>
      </g>
     </g>
     <g id="text_7">
      <!-- 2020 -->
      <g transform="translate(480.584553 392.598437)scale(0.1 -0.1)">
       <use xlink:href="#DejaVuSans-32"/>
       <use x="63.623047" xlink:href="#DejaVuSans-30"/>
       <use x="127.246094" xlink:href="#DejaVuSans-32"/>
       <use x="190.869141" xlink:href="#DejaVuSans-30"/>
      </g>
     </g>
    </g>
    <g id="xtick_8">
     <g id="line2d_15">
      <path clip-path="url(#pd27e32b4f9)" d="M 557.793374 378 
L 557.793374 51.84 
" style="fill:none;stroke:#e6e6e6;stroke-linecap:square;stroke-width:0.8;"/>
     </g>
     <g id="line2d_16">
      <g>
       <use style="stroke:#000000;stroke-width:0.8;" x="557.793374" xlink:href="#m604f8d94d2" y="378"/>
      </g>
     </g>
     <g id="text_8">
      <!-- 2030 -->
      <defs>
       <path d="M 40.578125 39.3125 
Q 47.65625 37.796875 51.625 33 
Q 55.609375 28.21875 55.609375 21.1875 
Q 55.609375 10.40625 48.1875 4.484375 
Q 40.765625 -1.421875 27.09375 -1.421875 
Q 22.515625 -1.421875 17.65625 -0.515625 
Q 12.796875 0.390625 7.625 2.203125 
L 7.625 11.71875 
Q 11.71875 9.328125 16.59375 8.109375 
Q 21.484375 6.890625 26.8125 6.890625 
Q 36.078125 6.890625 40.9375 10.546875 
Q 45.796875 14.203125 45.796875 21.1875 
Q 45.796875 27.640625 41.28125 31.265625 
Q 36.765625 34.90625 28.71875 34.90625 
L 20.21875 34.90625 
L 20.21875 43.015625 
L 29.109375 43.015625 
Q 36.375 43.015625 40.234375 45.921875 
Q 44.09375 48.828125 44.09375 54.296875 
Q 44.09375 59.90625 40.109375 62.90625 
Q 36.140625 65.921875 28.71875 65.921875 
Q 24.65625 65.921875 20.015625 65.03125 
Q 15.375 64.15625 9.8125 62.3125 
L 9.8125 71.09375 
Q 15.4375 72.65625 20.34375 73.4375 
Q 25.25 74.21875 29.59375 74.21875 
Q 40.828125 74.21875 47.359375 69.109375 
Q 53.90625 64.015625 53.90625 55.328125 
Q 53.90625 49.265625 50.4375 45.09375 
Q 46.96875 40.921875 40.578125 39.3125 
z
" id="DejaVuSans-33"/>
      </defs>
      <g transform="translate(545.068374 392.598437)scale(0.1 -0.1)">
       <use xlink:href="#DejaVuSans-32"/>
       <use x="63.623047" xlink:href="#DejaVuSans-30"/>
       <use x="127.246094" xlink:href="#DejaVuSans-33"/>
       <use x="190.869141" xlink:href="#DejaVuSans-30"/>
      </g>
     </g>
    </g>
   </g>
   <g id="matplotlib.axis_2">
    <g id="ytick_1">
     <g id="line2d_17">
      <path clip-path="url(#pd27e32b4f9)" d="M 81 378 
L 583.2 378 
" style="fill:none;stroke:#e6e6e6;stroke-linecap:square;stroke-width:0.8;"/>
     </g>
     <g id="line2d_18">
      <defs>
       <path d="M 0 0 
L -3.5 0 
" id="mb79f376655" style="stroke:#000000;stroke-width:0.8;"/>
      </defs>
      <g>
       <use style="stroke:#000000;stroke-width:0.8;" x="81" xlink:href="#mb79f376655" y="378"/>
      </g>
     </g>
     <g id="text_9">
      <!-- 0 -->
      <g transform="translate(67.6375 381.799219)scale(0.1 -0.1)">
       <use xlink:href="#DejaVuSans-30"/>
      </g>
     </g>
    </g>
    <g id="ytick_2">
     <g id="line2d_19">
      <path clip-path="url(#pd27e32b4f9)" d="M 81 334.825058 
L 583.2 334.825058 
" style="fill:none;stroke:#e6e6e6;stroke-linecap:square;stroke-width:0.8;"/>
     </g>
     <g id="line2d_20">
      <g>
       <use style="stroke:#000000;stroke-width:0.8;" x="81" xlink:href="#mb79f376655" y="334.825058"/>
      </g>
     </g>
     <g id="text_10">
      <!-- 20 -->
      <g transform="translate(61.275 338.624277)scale(0.1 -0.1)">
       <use xlink:href="#DejaVuSans-32"/>
       <use x="63.623047" xlink:href="#DejaVuSans-30"/>
      </g>
     </g>
    </g>
    <g id="ytick_3">
     <g id="line2d_21">
      <path clip-path="url(#pd27e32b4f9)" d="M 81 291.650116 
L 583.2 291.650116 
" style="fill:none;stroke:#e6e6e6;stroke-linecap:square;stroke-width:0.8;"/>
     </g>
     <g id="line2d_22">
      <g>
       <use style="stroke:#000000;stroke-width:0.8;" x="81" xlink:href="#mb79f376655" y="291.650116"/>
      </g>
     </g>
     <g id="text_11">
      <!-- 40 -->
      <defs>
       <path d="M 37.796875 64.3125 
L 12.890625 25.390625 
L 37.796875 25.390625 
z
M 35.203125 72.90625 
L 47.609375 72.90625 
L 47.609375 25.390625 
L 58.015625 25.390625 
L 58.015625 17.1875 
L 47.609375 17.1875 
L 47.609375 0 
L 37.796875 0 
L 37.796875 17.1875 
L 4.890625 17.1875 
L 4.890625 26.703125 
z
" id="DejaVuSans-34"/>
      </defs>
      <g transform="translate(61.275 295.449335)scale(0.1 -0.1)">
       <use xlink:href="#DejaVuSans-34"/>
       <use x="63.623047" xlink:href="#DejaVuSans-30"/>
      </g>
     </g>
    </g>
    <g id="ytick_4">
     <g id="line2d_23">
      <path clip-path="url(#pd27e32b4f9)" d="M 81 248.475174 
L 583.2 248.475174 
" style="fill:none;stroke:#e6e6e6;stroke-linecap:square;stroke-width:0.8;"/>
     </g>
     <g id="line2d_24">
      <g>
       <use style="stroke:#000000;stroke-width:0.8;" x="81" xlink:href="#mb79f376655" y="248.475174"/>
      </g>
     </g>
     <g id="text_12">
      <!-- 60 -->
      <g transform="translate(61.275 252.274392)scale(0.1 -0.1)">
       <use xlink:href="#DejaVuSans-36"/>
       <use x="63.623047" xlink:href="#DejaVuSans-30"/>
      </g>
     </g>
    </g>
    <g id="ytick_5">
     <g id="line2d_25">
      <path clip-path="url(#pd27e32b4f9)" d="M 81 205.300232 
L 583.2 205.300232 
" style="fill:none;stroke:#e6e6e6;stroke-linecap:square;stroke-width:0.8;"/>
     </g>
     <g id="line2d_26">
      <g>
       <use style="stroke:#000000;stroke-width:0.8;" x="81" xlink:href="#mb79f376655" y="205.300232"/>
      </g>
     </g>
     <g id="text_13">
      <!-- 80 -->
      <g transform="translate(61.275 209.09945)scale(0.1 -0.1)">
       <use xlink:href="#DejaVuSans-38"/>
       <use x="63.623047" xlink:href="#DejaVuSans-30"/>
      </g>
     </g>
    </g>
    <g id="ytick_6">
     <g id="line2d_27">
      <path clip-path="url(#pd27e32b4f9)" d="M 81 162.12529 
L 583.2 162.12529 
" style="fill:none;stroke:#e6e6e6;stroke-linecap:square;stroke-width:0.8;"/>
     </g>
     <g id="line2d_28">
      <g>
       <use style="stroke:#000000;stroke-width:0.8;" x="81" xlink:href="#mb79f376655" y="162.12529"/>
      </g>
     </g>
     <g id="text_14">
      <!-- 100 -->
      <g transform="translate(54.9125 165.924508)scale(0.1 -0.1)">
       <use xlink:href="#DejaVuSans-31"/>
       <use x="63.623047" xlink:href="#DejaVuSans-30"/>
       <use x="127.246094" xlink:href="#DejaVuSans-30"/>
      </g>
     </g>
    </g>
    <g id="ytick_7">
     <g id="line2d_29">
      <path clip-path="url(#pd27e32b4f9)" d="M 81 118.950347 
L 583.2 118.950347 
" style="fill:none;stroke:#e6e6e6;stroke-linecap:square;stroke-width:0.8;"/>
     </g>
     <g id="line2d_30">
      <g>
       <use style="stroke:#000000;stroke-width:0.8;" x="81" xlink:href="#mb79f376655" y="118.950347"/>
      </g>
     </g>
     <g id="text_15">
      <!-- 120 -->
      <g transform="translate(54.9125 122.749566)scale(0.1 -0.1)">
       <use xlink:href="#DejaVuSans-31"/>
       <use x="63.623047" xlink:href="#DejaVuSans-32"/>
       <use x="127.246094" xlink:href="#DejaVuSans-30"/>
      </g>
     </g>
    </g>
    <g id="ytick_8">
     <g id="line2d_31">
      <path clip-path="url(#pd27e32b4f9)" d="M 81 75.775405 
L 583.2 75.775405 
" style="fill:none;stroke:#e6e6e6;stroke-linecap:square;stroke-width:0.8;"/>
     </g>
     <g id="line2d_32">
      <g>
       <use style="stroke:#000000;stroke-width:0.8;" x="81" xlink:href="#mb79f376655" y="75.775405"/>
      </g>
     </g>
     <g id="text_16">
      <!-- 140 -->
      <g transform="translate(54.9125 79.574624)scale(0.1 -0.1)">
       <use xlink:href="#DejaVuSans-31"/>
       <use x="63.623047" xlink:href="#DejaVuSans-34"/>
       <use x="127.246094" xlink:href="#DejaVuSans-30"/>
      </g>
     </g>
    </g>
   </g>
   <g id="line2d_33">
    <path clip-path="url(#pd27e32b4f9)" d="M 493.309553 378 
L 493.309553 51.84 
" style="fill:none;stroke:#000000;stroke-dasharray:1.5,2.475;stroke-dashoffset:0;stroke-width:1.5;"/>
   </g>
   <g id="patch_287">
    <path d="M 81 378 
L 81 51.84 
" style="fill:none;stroke:#000000;stroke-linecap:square;stroke-linejoin:miter;stroke-width:0.8;"/>
   </g>
   <g id="patch_288">
    <path d="M 583.2 378 
L 583.2 51.84 
" style="fill:none;stroke:#000000;stroke-linecap:square;stroke-linejoin:miter;stroke-width:0.8;"/>
   </g>
   <g id="patch_289">
    <path d="M 81 378 
L 583.2 378 
" style="fill:none;stroke:#000000;stroke-linecap:square;stroke-linejoin:miter;stroke-width:0.8;"/>
   </g>
   <g id="patch_290">
    <path d="M 81 51.84 
L 583.2 51.84 
" style="fill:none;stroke:#000000;stroke-linecap:square;stroke-linejoin:miter;stroke-width:0.8;"/>
   </g>
  </g>
 </g>
 <defs>
  <clipPath id="pd27e32b4f9">
   <rect height="326.16" width="502.2" x="81" y="51.84"/>
  </clipPath>
 </defs>
</svg>
